<svg class="faux code" xmlns="http://www.w3.org/2000/svg" xmlns:xlink="http://www.w3.org/1999/xlink" width="425" height="380" viewBox="0 0 425 380">
  <rect x="0" y="0" width="425" height="380" fill="#24292e" />
  <g class="code block" stroke-linecap="round" stroke-width="5">
    <g class="code line">
      <line x1="47.5" y1="50" x2="87.5" y2="50" stroke="#f97583" />
      <line x1="92.5" y1="50" x2="107.5" y2="50" stroke="#d1d5da" />
    </g>
    <g class="code line">
      <line x1="47.5" y1="70" x2="82.5" y2="70" stroke="#f97583" />
      <line x1="87.5" y1="70" x2="87.5" y2="70" stroke="#d1d5da" />
    </g>
    <g class="code line">
      <line x1="47.5" y1="80" x2="57.5" y2="80" stroke="#d1d5da" />
      <line x1="57.5" y1="80" x2="127.5" y2="80" stroke="#ffab70" />
    </g>
    <g class="code line">
      <line x1="47.5" y1="90" x2="57.5" y2="90" stroke="#d1d5da" />
      <line x1="57.5" y1="90" x2="77.5" y2="90" stroke="#ffab70" />
    </g>
    <g class="code line">
      <line x1="47.5" y1="100" x2="57.5" y2="100" stroke="#d1d5da" />
      <line x1="57.5" y1="100" x2="102.5" y2="100" stroke="#ffab70" />
    </g>
    <g class="code line">
      <line x1="47.5" y1="110" x2="57.5" y2="110" stroke="#d1d5da" />
    </g>
    <g class="code line">
      <line x1="47.5" y1="130" x2="72.5" y2="130" stroke="#f97583" />
      <line x1="77.5" y1="130" x2="127.5" y2="130" stroke="#d1d5da" />
      <line x1="137.5" y1="130" x2="162.5" y2="130" stroke="#f97583" />
      <line x1="172.5" y1="130" x2="172.5" y2="130" stroke="#d1d5da" />
    </g>
    <g class="code line">
      <line x1="47.5" y1="140" x2="57.5" y2="140" stroke="#d1d5da" />
      <line x1="57.5" y1="140" x2="72.5" y2="140" stroke="#79b8ff" />
      <line x1="82.5" y1="140" x2="107.5" y2="140" stroke="#d1d5da" />
    </g>
    <g class="code line">
      <line x1="47.5" y1="150" x2="57.5" y2="150" stroke="#d1d5da" />
    </g>
    <g class="code line">
      <line x1="47.5" y1="170" x2="72.5" y2="170" stroke="#f97583" />
      <line x1="77.5" y1="170" x2="127.5" y2="170" stroke="#b392f0" />
      <line x1="132.5" y1="170" x2="132.5" y2="170" stroke="#d1d5da" />
      <line x1="137.5" y1="170" x2="142.5" y2="170" stroke="#d1d5da" />
      <line x1="152.5" y1="170" x2="172.5" y2="170" stroke="#d1d5da" />
      <line x1="177.5" y1="170" x2="242.5" y2="170" stroke="#d1d5da" />
      <line x1="247.5" y1="170" x2="247.5" y2="170" stroke="#d1d5da" />
      <line x1="257.5" y1="170" x2="287.5" y2="170" stroke="#d1d5da" />
      <line x1="297.5" y1="170" x2="297.5" y2="170" stroke="#79b8ff" />
      <line x1="302.5" y1="170" x2="322.5" y2="170" stroke="#d1d5da" />
      <line x1="327.5" y1="170" x2="357.5" y2="170" stroke="#d1d5da" />
      <line x1="362.5" y1="170" x2="362.5" y2="170" stroke="#d1d5da" />
      <line x1="372.5" y1="170" x2="372.5" y2="170" stroke="#d1d5da" />
    </g>
    <g class="code line">
      <line x1="47.5" y1="180" x2="57.5" y2="180" stroke="#d1d5da" />
      <line x1="57.5" y1="180" x2="87.5" y2="180" stroke="#d1d5da" />
      <line x1="97.5" y1="180" x2="102.5" y2="180" stroke="#79b8ff" />
      <line x1="112.5" y1="180" x2="127.5" y2="180" stroke="#d1d5da" />
      <line x1="132.5" y1="180" x2="132.5" y2="180" stroke="#d1d5da" />
      <line x1="137.5" y1="180" x2="182.5" y2="180" stroke="#b392f0" />
      <line x1="187.5" y1="180" x2="187.5" y2="180" stroke="#d1d5da" />
      <line x1="192.5" y1="180" x2="222.5" y2="180" stroke="#d1d5da" />
      <line x1="227.5" y1="180" x2="227.5" y2="180" stroke="#d1d5da" />
      <line x1="232.5" y1="180" x2="247.5" y2="180" stroke="#79b8ff" />
      <line x1="252.5" y1="180" x2="252.5" y2="180" stroke="#d1d5da" />
    </g>
    <g class="code line">
      <line x1="47.5" y1="200" x2="57.5" y2="200" stroke="#d1d5da" />
      <line x1="57.5" y1="200" x2="67.5" y2="200" stroke="#f97583" />
      <line x1="77.5" y1="200" x2="77.5" y2="200" stroke="#d1d5da" />
      <line x1="87.5" y1="200" x2="137.5" y2="200" stroke="#d1d5da" />
    </g>
    <g class="code line">
      <line x1="47.5" y1="210" x2="57.5" y2="210" stroke="#d1d5da" />
      <line x1="57.5" y1="210" x2="67.5" y2="210" stroke="#d1d5da" />
      <line x1="77.5" y1="210" x2="82.5" y2="210" stroke="#79b8ff" />
      <line x1="92.5" y1="210" x2="122.5" y2="210" stroke="#d1d5da" />
      <line x1="127.5" y1="210" x2="127.5" y2="210" stroke="#d1d5da" />
      <line x1="132.5" y1="210" x2="157.5" y2="210" stroke="#b392f0" />
      <line x1="162.5" y1="210" x2="162.5" y2="210" stroke="#d1d5da" />
      <line x1="167.5" y1="210" x2="167.5" y2="210" stroke="#79b8ff" />
      <line x1="172.5" y1="210" x2="172.5" y2="210" stroke="#d1d5da" />
      <line x1="177.5" y1="210" x2="177.5" y2="210" stroke="#d1d5da" />
    </g>
    <g class="code line">
      <line x1="47.5" y1="230" x2="57.5" y2="230" stroke="#d1d5da" />
      <line x1="57.5" y1="230" x2="62.5" y2="230" stroke="#f97583" />
      <line x1="72.5" y1="230" x2="82.5" y2="230" stroke="#d1d5da" />
      <line x1="92.5" y1="230" x2="97.5" y2="230" stroke="#79b8ff" />
      <line x1="107.5" y1="230" x2="117.5" y2="230" stroke="#79b8ff" />
      <line x1="127.5" y1="230" x2="127.5" y2="230" stroke="#d1d5da" />
    </g>
    <g class="code line">
      <line x1="47.5" y1="240" x2="62.5" y2="240" stroke="#d1d5da" />
      <line x1="62.5" y1="240" x2="82.5" y2="240" stroke="#b392f0" />
      <line x1="87.5" y1="240" x2="87.5" y2="240" stroke="#d1d5da" />
      <line x1="92.5" y1="240" x2="102.5" y2="240" stroke="#d1d5da" />
      <line x1="107.5" y1="240" x2="107.5" y2="240" stroke="#d1d5da" />
    </g>
    <g class="code line">
      <line x1="47.5" y1="250" x2="62.5" y2="250" stroke="#d1d5da" />
    </g>
    <g class="code line">
      <line x1="47.5" y1="270" x2="57.5" y2="270" stroke="#d1d5da" />
      <line x1="57.5" y1="270" x2="67.5" y2="270" stroke="#d1d5da" />
      <line x1="72.5" y1="270" x2="72.5" y2="270" stroke="#d1d5da" />
      <line x1="77.5" y1="270" x2="107.5" y2="270" stroke="#b392f0" />
      <line x1="112.5" y1="270" x2="112.5" y2="270" stroke="#d1d5da" />
      <line x1="117.5" y1="270" x2="117.5" y2="270" stroke="#d1d5da" />
      <line x1="122.5" y1="270" x2="122.5" y2="270" stroke="#d1d5da" />
      <line x1="127.5" y1="270" x2="142.5" y2="270" stroke="#79b8ff" />
      <line x1="147.5" y1="270" x2="147.5" y2="270" stroke="#d1d5da" />
    </g>
    <g class="code line">
      <line x1="47.5" y1="280" x2="57.5" y2="280" stroke="#d1d5da" />
    </g>
    <g class="code line">
      <line x1="47.5" y1="300" x2="72.5" y2="300" stroke="#f97583" />
      <line x1="77.5" y1="300" x2="92.5" y2="300" stroke="#b392f0" />
      <line x1="97.5" y1="300" x2="102.5" y2="300" stroke="#d1d5da" />
      <line x1="112.5" y1="300" x2="112.5" y2="300" stroke="#d1d5da" />
    </g>
    <g class="code line">
      <line x1="47.5" y1="310" x2="57.5" y2="310" stroke="#d1d5da" />
      <line x1="57.5" y1="310" x2="72.5" y2="310" stroke="#d1d5da" />
      <line x1="77.5" y1="310" x2="77.5" y2="310" stroke="#d1d5da" />
      <line x1="82.5" y1="310" x2="127.5" y2="310" stroke="#b392f0" />
      <line x1="132.5" y1="310" x2="132.5" y2="310" stroke="#d1d5da" />
      <line x1="137.5" y1="310" x2="147.5" y2="310" stroke="#ffab70" />
      <line x1="152.5" y1="310" x2="152.5" y2="310" stroke="#d1d5da" />
      <line x1="162.5" y1="310" x2="212.5" y2="310" stroke="#d1d5da" />
      <line x1="217.5" y1="310" x2="217.5" y2="310" stroke="#d1d5da" />
    </g>
    <g class="code line">
      <line x1="47.5" y1="320" x2="57.5" y2="320" stroke="#d1d5da" />
      <line x1="57.5" y1="320" x2="72.5" y2="320" stroke="#d1d5da" />
      <line x1="77.5" y1="320" x2="77.5" y2="320" stroke="#d1d5da" />
      <line x1="82.5" y1="320" x2="147.5" y2="320" stroke="#b392f0" />
      <line x1="152.5" y1="320" x2="152.5" y2="320" stroke="#d1d5da" />
      <line x1="157.5" y1="320" x2="187.5" y2="320" stroke="#ffab70" />
      <line x1="192.5" y1="320" x2="192.5" y2="320" stroke="#d1d5da" />
      <line x1="202.5" y1="320" x2="212.5" y2="320" stroke="#79b8ff" />
      <line x1="217.5" y1="320" x2="217.5" y2="320" stroke="#d1d5da" />
    </g>
    <g class="code line">
      <line x1="47.5" y1="330" x2="57.5" y2="330" stroke="#d1d5da" />
    </g>
  </g>  <g class="line numbers" stroke="#959da5" stroke-linecap="round" stroke-width="5">
      <line x1="32.5" y1="50" x2="32.5" y2="50" />
      <line x1="32.5" y1="60" x2="32.5" y2="60" />
      <line x1="32.5" y1="70" x2="32.5" y2="70" />
      <line x1="32.5" y1="80" x2="32.5" y2="80" />
      <line x1="32.5" y1="90" x2="32.5" y2="90" />
      <line x1="32.5" y1="100" x2="32.5" y2="100" />
      <line x1="32.5" y1="110" x2="32.5" y2="110" />
      <line x1="32.5" y1="120" x2="32.5" y2="120" />
      <line x1="32.5" y1="130" x2="32.5" y2="130" />
      <line x1="32.5" y1="140" x2="27.5" y2="140" />
      <line x1="32.5" y1="150" x2="27.5" y2="150" />
      <line x1="32.5" y1="160" x2="27.5" y2="160" />
      <line x1="32.5" y1="170" x2="27.5" y2="170" />
      <line x1="32.5" y1="180" x2="27.5" y2="180" />
      <line x1="32.5" y1="190" x2="27.5" y2="190" />
      <line x1="32.5" y1="200" x2="27.5" y2="200" />
      <line x1="32.5" y1="210" x2="27.5" y2="210" />
      <line x1="32.5" y1="220" x2="27.5" y2="220" />
      <line x1="32.5" y1="230" x2="27.5" y2="230" />
      <line x1="32.5" y1="240" x2="27.5" y2="240" />
      <line x1="32.5" y1="250" x2="27.5" y2="250" />
      <line x1="32.5" y1="260" x2="27.5" y2="260" />
      <line x1="32.5" y1="270" x2="27.5" y2="270" />
      <line x1="32.5" y1="280" x2="27.5" y2="280" />
      <line x1="32.5" y1="290" x2="27.5" y2="290" />
      <line x1="32.5" y1="300" x2="27.5" y2="300" />
      <line x1="32.5" y1="310" x2="27.5" y2="310" />
      <line x1="32.5" y1="320" x2="27.5" y2="320" />
      <line x1="32.5" y1="330" x2="27.5" y2="330" />
  </g>
</svg>